<?xml version="1.0" standalone="no"?><!DOCTYPE svg PUBLIC "-//W3C//DTD SVG 1.1//EN" "http://www.w3.org/Graphics/SVG/1.1/DTD/svg11.dtd"><svg class="position-absolute bottom-peak" version="1.1" xmlns="http://www.w3.org/2000/svg" xmlns:xlink="http://www.w3.org/1999/xlink">
                <g style="height:auto;overflow-x:visible;overflow-y:visible;width:auto;perspective-origin:0px 0px;transform-origin:0px 0px;fill:rgb(187, 17, 119);">
                    <path d="M0,2.452265280759235L1.1655011655011656,2.4556547282792898C2.331002331002331,2.459044175799344,4.662004662004662,2.4658230708394533,6.993006993006993,2.4985877301999775C9.324009324009324,2.5313523895605017,11.655011655011656,2.5901028132414416,13.986013986013987,2.6056377810416897C16.317016317016318,2.621172748841938,18.64801864801865,2.593492260761495,20.97902097902098,2.579087108801265C23.31002331002331,2.564681956841035,25.641025641025646,2.5635521410010185,27.972027972027973,2.5511241667608195C30.3030303030303,2.53869619252062,32.634032634032636,2.514970059880239,34.96503496503497,2.5271155801604324C37.2960372960373,2.5392611004406263,39.62703962703963,2.5872782736413953,41.95804195804196,2.5889729974014233C44.28904428904429,2.590667721161451,46.62004662004662,2.546039995480738,48.95104895104895,2.6047904191616773C51.28205128205129,2.663540842842617,53.613053613053616,2.82566941588521,55.94405594405595,2.8372500282453945C58.27505827505828,2.8488306406055792,60.6060606060606,2.7098632922833565,62.93706293706294,2.5559258840808936C65.26806526806527,2.4019884758784307,67.5990675990676,2.2330810077957275,69.93006993006993,2.0853575867133642C72.26107226107227,1.9376341656310008,74.5920745920746,1.811094791548977,76.92307692307692,1.721556886227545C79.25407925407926,1.632018980906113,81.5850815850816,1.5794825443452727,83.9160839160839,1.6537679358264612C86.24708624708626,1.7280533273076497,88.57808857808857,1.929160546830867,90.90909090909092,2.150886905434415C93.24009324009324,2.3726132640379625,95.57109557109557,2.614958761721841,97.9020979020979,2.8395096599254335C100.23310023310023,3.0640605581290266,102.56410256410255,3.2708168568523335,104.8951048951049,3.4047000338944753C107.22610722610723,3.538583210936617,109.55710955710957,3.599593266297594,111.8881118881119,3.622754491017964C114.21911421911422,3.6459157157383344,116.55011655011656,3.6312281098180983,118.88111888111888,3.7320641735397118C121.2121212121212,3.8329002372613252,123.54312354312356,4.049259970624788,125.87412587412587,4.248107558467969C128.2051282051282,4.446955146311151,130.5361305361305,4.6282905886340515,132.86713286713285,4.862162467517794C135.1981351981352,5.096034346401535,137.52913752913753,5.382442661846119,139.86013986013987,5.644842390690317C142.19114219114218,5.907242119534516,144.52214452214454,6.145633261778329,146.85314685314685,6.374985877301999C149.1841491841492,6.6043384928256685,151.51515151515153,6.824652581629195,153.84615384615387,7.05682973675291C156.1771561771562,7.2890068918766255,158.50815850815852,7.533047113320531,160.83916083916085,7.7177720031634856C163.17016317016316,7.9024968930064405,165.5011655011655,8.027906451248446,167.83216783216784,8.17450005649079C170.16317016317018,8.321093661733137,172.49417249417252,8.488871313975821,174.82517482517483,8.676420743418822C177.15617715617714,8.863970172861823,179.48717948717947,9.07129137950514,181.81818181818184,9.233702406507739C184.14918414918415,9.396113433510338,186.48018648018646,9.513614280872217,188.8111888111888,9.6562535306745C191.14219114219114,9.798892780476782,193.47319347319345,9.966670432719466,195.8041958041958,10.127951643882048C198.13519813519815,10.289232855044629,200.46620046620046,10.444017625127104,202.79720279720277,10.525929273528416C205.1282051282051,10.607840921929727,207.45920745920748,10.61687944864987,209.79020979020981,10.636368771890183C212.12121212121212,10.655858095130496,214.45221445221443,10.685798214890974,216.78321678321677,10.693706925771101C219.11421911421908,10.701615636651228,221.44522144522145,10.687492938651003,223.7762237762238,10.67930177381087C226.1072261072261,10.671110608970741,228.43822843822844,10.668850977290703,230.7692307692308,10.697378827251159C233.1002331002331,10.725906677211617,235.43123543123542,10.785222008812562,237.76223776223776,10.823353293413176C240.0932400932401,10.861484578013785,242.4242424242424,10.878431815614055,244.75524475524477,10.962320641735397C247.0862470862471,11.046209467856741,249.41724941724942,11.197039882499153,251.74825174825173,11.252118404700033C254.07925407925413,11.307196926900914,256.4102564102564,11.266523556660266,258.7412587412587,11.281493616540503C261.0722610722611,11.296463676420743,263.4032634032634,11.367077166421872,265.7342657342657,11.449271268783187C268.06526806526807,11.5314653711445,270.3962703962704,11.625240085866004,272.7272727272727,11.687944864987008C275.05827505827506,11.75064964410801,277.38927738927737,11.782284487628516,279.72027972027973,11.81702632470907C282.05128205128204,11.851768161789629,284.38228438228435,11.889616992430234,286.7132867132867,11.890181900350242C289.0442890442891,11.89074680827025,291.3752913752914,11.854027793469664,293.7062937062937,11.83821037170941C296.037296037296,11.822392949949156,298.3682983682984,11.827477121229242,300.6993006993007,11.842447181109478C303.03030303030306,11.857417240989719,305.36130536130537,11.882273189470117,307.6923076923077,11.864478589989831C310.02331002331005,11.846683990509547,312.35431235431236,11.78623884306858,314.68531468531467,11.77268105298836C317.01631701631703,11.759123262908146,319.34731934731934,11.79245283018868,321.67832167832165,11.838775279629422C324.00932400932396,11.88509772907016,326.3403263403263,11.94441306067111,328.67132867132864,11.985086430911762C331.002331002331,12.025759801152413,333.3333333333333,12.047791210032765,335.6643356643357,12.041012314992656C337.99533799533805,12.034233419952548,340.32634032634036,11.998644220991977,342.65734265734267,11.96559710767145C344.98834498834503,11.932549994350921,347.31934731934734,11.90204496667043,349.65034965034965,11.858547056829735C351.98135198135196,11.81504914698904,354.31235431235433,11.758558354988134,356.64335664335664,11.750367190148005C358.97435897435906,11.742176025307876,361.3053613053614,11.782284487628516,363.63636363636357,11.824370127669189C365.967365967366,11.866455767709864,368.2983682983683,11.91051858547057,370.6293706293706,11.914190486950629C372.9603729603729,11.917862388430686,375.2913752913753,11.881143373630097,377.6223776223776,11.82634730538922C379.95337995337997,11.771551237148344,382.2843822843823,11.69867811546718,384.6153846153846,11.722121794147554C386.946386946387,11.745565472827929,389.2773892773893,11.865325951869844,391.6083916083916,11.95062704779121C393.939393939394,12.035928143712574,396.2703962703963,12.08676985651339,398.6013986013986,12.18365156479494C400.9324009324009,12.280533273076491,403.26340326340323,12.423454976838777,405.59440559440554,12.51186306632019C407.92540792540785,12.600271155801606,410.2564102564102,12.634165631002148,412.58741258741253,12.660716303242571C414.91841491841495,12.687266975482993,417.24941724941726,12.706473844763302,419.5804195804196,12.72822279968365C421.9114219114219,12.749971754604,424.24242424242425,12.77426279516439,426.57342657342656,12.831036041125296C428.90442890442887,12.887809287086204,431.23543123543124,12.977064738447632,433.56643356643355,13.038639701728618C435.89743589743586,13.100214665009602,438.2284382284383,13.134109140210148,440.5594405594406,13.192859563891085C442.89044289044296,13.251609987572026,445.22144522144526,13.335216359733364,447.5524475524476,13.387187888374195C449.8834498834499,13.439159417015025,452.2144522144522,13.459496102135352,454.5454545454545,13.482657326855724C456.8764568764568,13.505818551576093,459.2074592074592,13.531804315896508,461.5384615384615,13.568523330697095C463.8694638694639,13.605242345497684,466.2004662004662,13.652694610778441,468.53146853146853,13.688566263699016C470.86247086247084,13.724437916619591,473.1934731934732,13.74872895717998,475.5244755244755,13.781493616540503C477.85547785547783,13.81425827590103,480.1864801864802,13.85549655406169,482.5174825174825,13.883459496102136C484.8484848484848,13.911422438142585,487.17948717948724,13.926110044062819,489.51048951048955,13.947011637103152C491.8414918414919,13.967913230143488,494.1724941724942,13.995028810303921,496.50349650349654,14.004067337024063C498.83449883449885,14.01310586374421,501.16550116550115,14.004067337024066,503.49650349650346,14.018472488984294C505.82750582750583,14.032877640944527,508.15850815850814,14.070726471585132,510.48951048951056,14.081742176025308C512.8205128205128,14.092757880465484,515.1515151515151,14.07694045870523,517.4825174825174,14.05999322110496C519.8135198135199,14.043045983504689,522.1445221445222,14.024968930064398,524.4755244755244,14.054061687944865C526.8065268065268,14.083154445825329,529.1375291375291,14.159417015026548,531.4685314685314,14.157439837306518C533.7995337995338,14.155462659586485,536.1305361305361,14.075245734945204,538.4615384615385,14.032312733024517C540.7925407925408,13.98937973110383,543.1235431235431,13.98373065190374,545.4545454545454,13.964806236583437C547.7855477855477,13.945881821263134,550.1165501165501,13.913682069822618,552.4475524475524,13.856626369901706C554.7785547785547,13.799570669980795,557.1095571095572,13.717659021579484,559.4405594405595,13.669641848378717C561.7715617715618,13.621624675177946,564.1025641025641,13.60750197717772,566.4335664335664,13.592814371257484C568.7645687645688,13.57812676533725,571.0955710955711,13.562874251497007,573.4265734265736,13.523330697096375C575.7575757575758,13.483787142695741,578.0885780885781,13.419952547734722,580.4195804195805,13.344537340413515C582.7505827505828,13.269122133092308,585.0815850815851,13.182126313410913,587.4125874125874,13.06942718336911C589.7435897435897,12.956728053327305,592.074592074592,12.818325612925094,594.4055944055943,12.70732120664332C596.7365967365967,12.596316800361542,599.0675990675991,12.512710428200203,601.3986013986014,12.45424245847927C603.7296037296037,12.395774488758335,606.0606060606061,12.3624449214778,608.3916083916084,12.31922946559711C610.7226107226107,12.276014009716418,613.053613053613,12.222912665235569,615.3846153846154,12.15992543215456C617.7156177156178,12.096938199073554,620.0466200466201,12.024065077392386,622.3776223776223,11.931420178510903C624.7086247086247,11.838775279629422,627.039627039627,11.726358603547618,629.3706293706293,11.622133092305953C631.7016317016318,11.517907581064286,634.0326340326341,11.42187323466275,636.3636363636364,11.317930177381088C638.6946386946387,11.213987120099427,641.025641025641,11.102135351937635,643.3566433566433,10.977290701615637C645.6876456876456,10.85244605129364,648.018648018648,10.714608518811431,650.3496503496503,10.623093435769968C652.6806526806527,10.531578352728504,655.011655011655,10.486385719127783,657.3426573426573,10.378205852446051C659.6736596736597,10.270025985764322,662.004662004662,10.098858886001581,664.3356643356643,9.950288103039204C666.6666666666667,9.801717320076827,668.997668997669,9.67574285391481,671.3286713286715,9.56191390803299C673.6596736596737,9.448084962151169,675.990675990676,9.346401536549545,678.3216783216784,9.215060445147442C680.6526806526807,9.083719353745343,682.983682983683,8.922720596542765,685.3146853146853,8.81171619026099C687.6456876456876,8.700711783979214,689.97668997669,8.639701728618236,692.3076923076924,8.53547621737657C694.6386946386947,8.431250706134902,696.969696969697,8.283809739012542,699.3006993006993,8.160377358490566C701.6317016317016,8.036944977968592,703.9627039627039,7.937521184047,706.2937062937062,7.834707942605355C708.6247086247085,7.73189470116371,710.955710955711,7.62569201220201,713.2867132867133,7.477686137159644C715.6177156177158,7.329680262117275,717.9487179487181,7.139871200994239,720.2797202797202,6.963055022031409C722.6107226107227,6.786238843068581,724.941724941725,6.622415546265959,727.2727272727271,6.439950288103039C729.6037296037297,6.257485029940118,731.934731934732,6.0563778104169,734.2657342657343,5.862049485933791C736.5967365967366,5.6677211614506815,738.9277389277389,5.480171732007681,741.2587412587412,5.301943283244829C743.5897435897435,5.123714834481977,745.920745920746,4.954807366399275,748.2517482517483,4.781945542876509C750.5827505827506,4.609083719353744,752.9137529137529,4.432267540390915,755.2447552447552,4.276917862388429C757.5757575757575,4.121568184385944,759.9067599067599,3.9876850073438015,762.2377622377622,3.868771890181899C764.5687645687645,3.7498587730199966,766.8997668997669,3.6459157157383344,769.2307692307692,3.564851429217038C771.5617715617715,3.4837871426957414,773.8927738927738,3.4256016269348115,776.2237762237763,3.2886114563326196C778.5547785547786,3.151621285730428,780.885780885781,2.9358264602869752,783.2167832167833,2.779064512484467C785.5477855477856,2.622302564681958,787.8787878787879,2.524573494520394,790.2097902097903,2.3565133883177047C792.5407925407926,2.1884532821150153,794.8717948717949,1.950062139871201,797.2027972027972,1.7822844876285167C799.5337995337995,1.614506835385832,801.8648018648018,1.5173426731442774,804.1958041958042,1.4204609648627275C806.5268065268065,1.3235792565811775,808.8578088578088,1.2269800022596324,811.1888111888111,1.1154106880578472C813.5198135198134,1.003841373856062,815.8508158508158,0.877301999774037,818.1818181818181,0.7617783301321884C820.5128205128207,0.64625466049034,822.843822843823,0.5417466952886679,825.1748251748251,0.4683086656874931C827.5058275058276,0.39487063608631817,829.8368298368299,0.3525025420856404,832.1678321678322,0.28104169020449693C834.4988344988345,0.20958083832335342,836.8298368298368,0.10902722856174425,839.1608391608391,0.11411139984182543C841.4918414918415,0.1191955711219066,843.8228438228439,0.2299175234436781,846.1538461538461,0.23669641848378653C848.4848484848485,0.24347531352389495,850.8158508158508,0.1463111512823403,853.146853146853,0.1019658795616311C855.4778554778554,0.0576206078409219,857.8088578088577,0.06609422664105817,860.13986013986,0.057903061800927226C862.4708624708624,0.04971189696079629,864.8018648018648,0.024855948480398144,867.1328671328671,0.016664783640266616C869.4638694638694,0.008473618800135085,871.7948717948717,0.01694723760027017,874.1258741258742,0.07372048356117844C876.4568764568766,0.1304937295220867,878.7878787878789,0.23556660264376816,881.1188811188812,0.30646254660490274C883.4498834498835,0.3773584905660374,885.7808857808858,0.4140775053666251,888.1118881118881,0.4067337024065078C890.4428904428905,0.3993898994463905,892.7738927738928,0.3479832787255681,895.1048951048951,0.3160659812450574C897.4358974358975,0.28414868376454666,899.7668997668998,0.2717207095243476,902.0979020979021,0.3039204609648631C904.4289044289044,0.33612021240537854,906.7599067599067,0.4129476895266085,909.090909090909,0.46943848152751205C911.4219114219113,0.5259292735284156,913.7529137529136,0.5620833804089926,916.083916083916,0.600497118969607C918.4149184149184,0.6389108575302215,920.7459207459207,0.6795842277708731,923.076923076923,0.7163032425714609C925.4079254079255,0.7530222573720486,927.7389277389278,0.7857869167325724,930.0699300699301,0.7984973449327756C932.4009324009324,0.8112077731329789,934.7319347319348,0.8038639701728615,937.0629370629371,0.828437464693255C939.3939393939394,0.8530109592136483,941.7249417249418,0.9095017512145525,944.055944055944,0.9803976951756864C946.3869463869464,1.0512936391368204,948.7179487179487,1.1365947350581844,951.0489510489512,1.1964749745791423C953.3799533799533,1.2563552141001004,955.7109557109557,1.2908145972206526,958.0419580419581,1.3077618348209246C960.3729603729603,1.3247090724211965,962.7039627039627,1.3241441645011882,965.034965034965,1.3052197491808855C967.3659673659673,1.2862953338605827,969.6969696969696,1.2490114111399855,972.0279720279719,1.1981696983391714C974.3589743589743,1.1473279855383574,976.6899766899768,1.0829284826573264,979.0209790209791,1.0589198960569426C981.3519813519814,1.0349113094565585,983.6829836829837,1.0512936391368217,986.013986013986,1.0899898316574408C988.3449883449885,1.1286860241780599,990.6759906759908,1.1896960795390352,993.0069930069931,1.22189583097955C995.3379953379954,1.2540955824200648,997.6689976689977,1.2574850299401195,998.8344988344988,1.2591797537001466L1000,1.260874477460174L1000,30L998.8344988344988,30C997.6689976689977,30,995.3379953379954,30,993.0069930069931,30C990.6759906759908,30,988.3449883449885,30,986.0139860139861,30C983.6829836829837,30,981.3519813519814,30,979.0209790209791,30C976.6899766899768,30,974.3589743589743,30,972.0279720279719,30C969.6969696969696,30,967.3659673659673,30,965.034965034965,30C962.7039627039627,30,960.3729603729603,30,958.0419580419581,30C955.7109557109557,30,953.3799533799533,30,951.0489510489512,30C948.7179487179487,30,946.3869463869464,30,944.0559440559441,30C941.7249417249418,30,939.3939393939394,30,937.0629370629371,30C934.7319347319348,30,932.4009324009324,30,930.0699300699301,30C927.7389277389278,30,925.4079254079255,30,923.076923076923,30C920.7459207459207,30,918.4149184149184,30,916.083916083916,30C913.7529137529136,30,911.4219114219113,30,909.090909090909,30C906.7599067599067,30,904.4289044289044,30,902.0979020979021,30C899.7668997668998,30,897.4358974358975,30,895.1048951048951,30C892.7738927738928,30,890.4428904428905,30,888.1118881118881,30C885.7808857808858,30,883.4498834498835,30,881.1188811188812,30C878.7878787878789,30,876.4568764568766,30,874.1258741258742,30C871.7948717948717,30,869.4638694638694,30,867.1328671328671,30C864.8018648018648,30,862.4708624708624,30,860.1398601398602,30C857.8088578088577,30,855.4778554778554,30,853.146853146853,30C850.8158508158508,30,848.4848484848485,30,846.1538461538461,30C843.8228438228439,30,841.4918414918415,30,839.1608391608391,30C836.8298368298368,30,834.4988344988345,30,832.1678321678322,30C829.8368298368299,30,827.5058275058276,30,825.1748251748251,30C822.843822843823,30,820.5128205128207,30,818.1818181818181,30C815.8508158508158,30,813.5198135198134,30,811.1888111888111,30C808.8578088578088,30,806.5268065268065,30,804.1958041958042,30C801.8648018648018,30,799.5337995337995,30,797.2027972027972,30C794.8717948717949,30,792.5407925407926,30,790.2097902097902,30C787.8787878787879,30,785.5477855477856,30,783.2167832167833,30C780.885780885781,30,778.5547785547786,30,776.2237762237763,30C773.8927738927738,30,771.5617715617715,30,769.2307692307694,30C766.8997668997669,30,764.5687645687645,30,762.2377622377622,30C759.9067599067599,30,757.5757575757575,30,755.2447552447552,30C752.9137529137529,30,750.5827505827506,30,748.2517482517483,30C745.920745920746,30,743.5897435897435,30,741.2587412587412,30C738.9277389277389,30,736.5967365967366,30,734.2657342657343,30C731.934731934732,30,729.6037296037297,30,727.2727272727274,30C724.941724941725,30,722.6107226107227,30,720.2797202797202,30C717.9487179487181,30,715.6177156177158,30,713.2867132867133,30C710.955710955711,30,708.6247086247085,30,706.2937062937062,30C703.9627039627039,30,701.6317016317016,30,699.3006993006993,30C696.969696969697,30,694.6386946386947,30,692.3076923076923,30C689.97668997669,30,687.6456876456876,30,685.3146853146853,30C682.983682983683,30,680.6526806526807,30,678.3216783216784,30C675.990675990676,30,673.6596736596737,30,671.3286713286715,30C668.997668997669,30,666.6666666666667,30,664.3356643356644,30C662.004662004662,30,659.6736596736597,30,657.3426573426574,30C655.011655011655,30,652.6806526806527,30,650.3496503496503,30C648.018648018648,30,645.6876456876456,30,643.3566433566433,30C641.025641025641,30,638.6946386946387,30,636.3636363636364,30C634.0326340326341,30,631.7016317016318,30,629.3706293706294,30C627.039627039627,30,624.7086247086247,30,622.3776223776223,30C620.0466200466201,30,617.7156177156178,30,615.3846153846154,30C613.053613053613,30,610.7226107226107,30,608.3916083916084,30C606.0606060606061,30,603.7296037296037,30,601.3986013986014,30C599.0675990675991,30,596.7365967365967,30,594.4055944055943,30C592.074592074592,30,589.7435897435897,30,587.4125874125874,30C585.0815850815851,30,582.7505827505828,30,580.4195804195805,30C578.0885780885781,30,575.7575757575758,30,573.4265734265736,30C571.0955710955711,30,568.7645687645688,30,566.4335664335665,30C564.1025641025641,30,561.7715617715618,30,559.4405594405595,30C557.1095571095572,30,554.7785547785547,30,552.4475524475524,30C550.1165501165501,30,547.7855477855477,30,545.4545454545454,30C543.1235431235431,30,540.7925407925408,30,538.4615384615385,30C536.1305361305361,30,533.7995337995338,30,531.4685314685315,30C529.1375291375291,30,526.8065268065268,30,524.4755244755244,30C522.1445221445222,30,519.8135198135199,30,517.4825174825174,30C515.1515151515151,30,512.8205128205128,30,510.48951048951056,30C508.15850815850814,30,505.82750582750583,30,503.4965034965035,30C501.16550116550115,30,498.83449883449885,30,496.50349650349654,30C494.1724941724942,30,491.8414918414919,30,489.5104895104896,30C487.17948717948724,30,484.8484848484848,30,482.5174825174825,30C480.1864801864802,30,477.85547785547783,30,475.5244755244755,30C473.1934731934732,30,470.86247086247084,30,468.53146853146853,30C466.2004662004662,30,463.8694638694639,30,461.5384615384615,30C459.2074592074592,30,456.8764568764568,30,454.5454545454545,30C452.2144522144522,30,449.8834498834499,30,447.5524475524476,30C445.22144522144526,30,442.89044289044296,30,440.5594405594406,30C438.2284382284383,30,435.89743589743586,30,433.56643356643355,30C431.23543123543124,30,428.90442890442887,30,426.57342657342656,30C424.24242424242425,30,421.9114219114219,30,419.5804195804196,30C417.24941724941726,30,414.91841491841495,30,412.58741258741253,30C410.2564102564102,30,407.92540792540785,30,405.59440559440554,30C403.26340326340323,30,400.9324009324009,30,398.6013986013986,30C396.2703962703963,30,393.939393939394,30,391.6083916083916,30C389.2773892773893,30,386.946386946387,30,384.6153846153846,30C382.2843822843823,30,379.95337995337997,30,377.6223776223776,30C375.2913752913753,30,372.9603729603729,30,370.6293706293706,30C368.2983682983683,30,365.967365967366,30,363.6363636363637,30C361.3053613053614,30,358.97435897435906,30,356.64335664335664,30C354.31235431235433,30,351.98135198135196,30,349.65034965034965,30C347.31934731934734,30,344.98834498834503,30,342.65734265734267,30C340.32634032634036,30,337.99533799533805,30,335.6643356643357,30C333.3333333333333,30,331.002331002331,30,328.6713286713287,30C326.3403263403263,30,324.00932400932396,30,321.67832167832165,30C319.34731934731934,30,317.01631701631703,30,314.6853146853147,30C312.35431235431236,30,310.02331002331005,30,307.6923076923077,30C305.36130536130537,30,303.03030303030306,30,300.6993006993007,30C298.3682983682984,30,296.037296037296,30,293.7062937062937,30C291.3752913752914,30,289.0442890442891,30,286.7132867132867,30C284.38228438228435,30,282.05128205128204,30,279.72027972027973,30C277.38927738927737,30,275.05827505827506,30,272.7272727272727,30C270.3962703962704,30,268.06526806526807,30,265.73426573426576,30C263.4032634032634,30,261.0722610722611,30,258.7412587412587,30C256.4102564102564,30,254.07925407925413,30,251.74825174825176,30C249.41724941724942,30,247.0862470862471,30,244.7552447552448,30C242.4242424242424,30,240.0932400932401,30,237.76223776223776,30C235.43123543123542,30,233.1002331002331,30,230.76923076923075,30C228.43822843822844,30,226.1072261072261,30,223.7762237762238,30C221.44522144522145,30,219.11421911421908,30,216.78321678321677,30C214.45221445221443,30,212.12121212121212,30,209.7902097902098,30C207.45920745920748,30,205.1282051282051,30,202.79720279720277,30C200.46620046620046,30,198.13519813519815,30,195.8041958041958,30C193.47319347319345,30,191.14219114219114,30,188.8111888111888,30C186.48018648018646,30,184.14918414918415,30,181.81818181818184,30C179.48717948717947,30,177.15617715617714,30,174.82517482517483,30C172.49417249417252,30,170.16317016317018,30,167.83216783216784,30C165.5011655011655,30,163.17016317016316,30,160.83916083916083,30C158.50815850815852,30,156.1771561771562,30,153.84615384615387,30C151.51515151515153,30,149.1841491841492,30,146.85314685314685,30C144.52214452214454,30,142.19114219114218,30,139.86013986013987,30C137.52913752913753,30,135.1981351981352,30,132.86713286713285,30C130.5361305361305,30,128.2051282051282,30,125.87412587412587,30C123.54312354312356,30,121.2121212121212,30,118.88111888111888,30C116.55011655011656,30,114.21911421911422,30,111.8881118881119,30C109.55710955710957,30,107.22610722610723,30,104.8951048951049,30C102.56410256410255,30,100.23310023310023,30,97.9020979020979,30C95.57109557109557,30,93.24009324009324,30,90.90909090909092,30C88.57808857808857,30,86.24708624708626,30,83.9160839160839,30C81.5850815850816,30,79.25407925407926,30,76.92307692307693,30C74.5920745920746,30,72.26107226107227,30,69.93006993006993,30C67.5990675990676,30,65.26806526806527,30,62.93706293706294,30C60.6060606060606,30,58.27505827505828,30,55.94405594405595,30C53.613053613053616,30,51.28205128205129,30,48.95104895104895,30C46.62004662004662,30,44.28904428904429,30,41.95804195804196,30C39.62703962703963,30,37.2960372960373,30,34.96503496503497,30C32.634032634032636,30,30.3030303030303,30,27.972027972027973,30C25.641025641025646,30,23.31002331002331,30,20.97902097902098,30C18.64801864801865,30,16.317016317016318,30,13.986013986013987,30C11.655011655011656,30,9.324009324009324,30,6.993006993006993,30C4.662004662004662,30,2.331002331002331,30,1.1655011655011656,30L0,30Z" style="height:auto;overflow-x:visible;overflow-y:visible;width:auto;perspective-origin:0px 0px;transform-origin:0px 0px;fill:rgb(187, 17, 119);d:path(&quot;M 0 2.45227 L 1.1655 2.45565 C 2.331 2.45904 4.662 2.46582 6.99301 2.49859 C 9.32401 2.53135 11.655 2.5901 13.986 2.60564 C 16.317 2.62117 18.648 2.59349 20.979 2.57909 C 23.31 2.56468 25.641 2.56355 27.972 2.55112 C 30.303 2.5387 32.634 2.51497 34.965 2.52712 C 37.296 2.53926 39.627 2.58728 41.958 2.58897 C 44.289 2.59067 46.62 2.54604 48.951 2.60479 C 51.2821 2.66354 53.6131 2.82567 55.9441 2.83725 C 58.2751 2.84883 60.6061 2.70986 62.9371 2.55593 C 65.2681 2.40199 67.5991 2.23308 69.9301 2.08536 C 72.2611 1.93763 74.5921 1.81109 76.9231 1.72156 C 79.2541 1.63202 81.5851 1.57948 83.9161 1.65377 C 86.2471 1.72805 88.5781 1.92916 90.9091 2.15089 C 93.2401 2.37261 95.5711 2.61496 97.9021 2.83951 C 100.233 3.06406 102.564 3.27082 104.895 3.4047 C 107.226 3.53858 109.557 3.59959 111.888 3.62275 C 114.219 3.64592 116.55 3.63123 118.881 3.73206 C 121.212 3.8329 123.543 4.04926 125.874 4.24811 C 128.205 4.44696 130.536 4.62829 132.867 4.86216 C 135.198 5.09603 137.529 5.38244 139.86 5.64484 C 142.191 5.90724 144.522 6.14563 146.853 6.37499 C 149.184 6.60434 151.515 6.82465 153.846 7.05683 C 156.177 7.28901 158.508 7.53305 160.839 7.71777 C 163.17 7.9025 165.501 8.02791 167.832 8.1745 C 170.163 8.32109 172.494 8.48887 174.825 8.67642 C 177.156 8.86397 179.487 9.07129 181.818 9.2337 C 184.149 9.39611 186.48 9.51361 188.811 9.65625 C 191.142 9.79889 193.473 9.96667 195.804 10.128 C 198.135 10.2892 200.466 10.444 202.797 10.5259 C 205.128 10.6078 207.459 10.6169 209.79 10.6364 C 212.121 10.6559 214.452 10.6858 216.783 10.6937 C 219.114 10.7016 221.445 10.6875 223.776 10.6793 C 226.107 10.6711 228.438 10.6689 230.769 10.6974 C 233.1 10.7259 235.431 10.7852 237.762 10.8234 C 240.093 10.8615 242.424 10.8784 244.755 10.9623 C 247.086 11.0462 249.417 11.197 251.748 11.2521 C 254.079 11.3072 256.41 11.2665 258.741 11.2815 C 261.072 11.2965 263.403 11.3671 265.734 11.4493 C 268.065 11.5315 270.396 11.6252 272.727 11.6879 C 275.058 11.7506 277.389 11.7823 279.72 11.817 C 282.051 11.8518 284.382 11.8896 286.713 11.8902 C 289.044 11.8907 291.375 11.854 293.706 11.8382 C 296.037 11.8224 298.368 11.8275 300.699 11.8424 C 303.03 11.8574 305.361 11.8823 307.692 11.8645 C 310.023 11.8467 312.354 11.7862 314.685 11.7727 C 317.016 11.7591 319.347 11.7925 321.678 11.8388 C 324.009 11.8851 326.34 11.9444 328.671 11.9851 C 331.002 12.0258 333.333 12.0478 335.664 12.041 C 337.995 12.0342 340.326 11.9986 342.657 11.9656 C 344.988 11.9326 347.319 11.902 349.65 11.8585 C 351.981 11.815 354.312 11.7586 356.643 11.7504 C 358.974 11.7422 361.305 11.7823 363.636 11.8244 C 365.967 11.8665 368.298 11.9105 370.629 11.9142 C 372.96 11.9179 375.291 11.8811 377.622 11.8263 C 379.953 11.7716 382.284 11.6987 384.615 11.7221 C 386.946 11.7456 389.277 11.8653 391.608 11.9506 C 393.939 12.0359 396.27 12.0868 398.601 12.1837 C 400.932 12.2805 403.263 12.4235 405.594 12.5119 C 407.925 12.6003 410.256 12.6342 412.587 12.6607 C 414.918 12.6873 417.249 12.7065 419.58 12.7282 C 421.911 12.75 424.242 12.7743 426.573 12.831 C 428.904 12.8878 431.235 12.9771 433.566 13.0386 C 435.897 13.1002 438.228 13.1341 440.559 13.1929 C 442.89 13.2516 445.221 13.3352 447.552 13.3872 C 449.883 13.4392 452.214 13.4595 454.545 13.4827 C 456.876 13.5058 459.207 13.5318 461.538 13.5685 C 463.869 13.6052 466.2 13.6527 468.531 13.6886 C 470.862 13.7244 473.193 13.7487 475.524 13.7815 C 477.855 13.8143 480.186 13.8555 482.517 13.8835 C 484.848 13.9114 487.179 13.9261 489.51 13.947 C 491.841 13.9679 494.172 13.995 496.504 14.0041 C 498.835 14.0131 501.165 14.0041 503.496 14.0185 C 505.828 14.0329 508.159 14.0707 510.49 14.0817 C 512.82 14.0928 515.151 14.0769 517.483 14.06 C 519.814 14.043 522.145 14.025 524.476 14.0541 C 526.807 14.0832 529.138 14.1594 531.469 14.1574 C 533.8 14.1555 536.131 14.0752 538.462 14.0323 C 540.793 13.9894 543.124 13.9837 545.455 13.9648 C 547.786 13.9459 550.117 13.9137 552.448 13.8566 C 554.779 13.7996 557.11 13.7177 559.441 13.6696 C 561.772 13.6216 564.103 13.6075 566.434 13.5928 C 568.765 13.5781 571.096 13.5629 573.427 13.5233 C 575.758 13.4838 578.089 13.42 580.42 13.3445 C 582.751 13.2691 585.082 13.1821 587.413 13.0694 C 589.744 12.9567 592.075 12.8183 594.406 12.7073 C 596.737 12.5963 599.068 12.5127 601.399 12.4542 C 603.73 12.3958 606.061 12.3624 608.392 12.3192 C 610.723 12.276 613.054 12.2229 615.385 12.1599 C 617.716 12.0969 620.047 12.0241 622.378 11.9314 C 624.709 11.8388 627.04 11.7264 629.371 11.6221 C 631.702 11.5179 634.033 11.4219 636.364 11.3179 C 638.695 11.214 641.026 11.1021 643.357 10.9773 C 645.688 10.8524 648.019 10.7146 650.35 10.6231 C 652.681 10.5316 655.012 10.4864 657.343 10.3782 C 659.674 10.27 662.005 10.0989 664.336 9.95029 C 666.667 9.80172 668.998 9.67574 671.329 9.56191 C 673.66 9.44808 675.991 9.3464 678.322 9.21506 C 680.653 9.08372 682.984 8.92272 685.315 8.81172 C 687.646 8.70071 689.977 8.6397 692.308 8.53548 C 694.639 8.43125 696.97 8.28381 699.301 8.16038 C 701.632 8.03695 703.963 7.93752 706.294 7.83471 C 708.625 7.73189 710.956 7.62569 713.287 7.47769 C 715.618 7.32968 717.949 7.13987 720.28 6.96306 C 722.611 6.78624 724.942 6.62242 727.273 6.43995 C 729.604 6.25748 731.935 6.05638 734.266 5.86205 C 736.597 5.66772 738.928 5.48017 741.259 5.30194 C 743.59 5.12371 745.921 4.95481 748.252 4.78195 C 750.583 4.60908 752.914 4.43227 755.245 4.27692 C 757.576 4.12157 759.907 3.98768 762.238 3.86877 C 764.569 3.74986 766.9 3.64592 769.231 3.56485 C 771.562 3.48379 773.893 3.4256 776.224 3.28861 C 778.555 3.15162 780.886 2.93583 783.217 2.77906 C 785.548 2.6223 787.879 2.52457 790.21 2.35651 C 792.541 2.18845 794.872 1.95006 797.203 1.78228 C 799.534 1.61451 801.865 1.51734 804.196 1.42046 C 806.527 1.32358 808.858 1.22698 811.189 1.11541 C 813.52 1.00384 815.851 0.877302 818.182 0.761778 C 820.513 0.646255 822.844 0.541747 825.175 0.468309 C 827.506 0.394871 829.837 0.352503 832.168 0.281042 C 834.499 0.209581 836.83 0.109027 839.161 0.114111 C 841.492 0.119196 843.823 0.229918 846.154 0.236696 C 848.485 0.243475 850.816 0.146311 853.147 0.101966 C 855.478 0.0576206 857.809 0.0660942 860.14 0.0579031 C 862.471 0.0497119 864.802 0.0248559 867.133 0.0166648 C 869.464 0.00847362 871.795 0.0169472 874.126 0.0737205 C 876.457 0.130494 878.788 0.235567 881.119 0.306463 C 883.45 0.377358 885.781 0.414078 888.112 0.406734 C 890.443 0.39939 892.774 0.347983 895.105 0.316066 C 897.436 0.284149 899.767 0.271721 902.098 0.30392 C 904.429 0.33612 906.76 0.412948 909.091 0.469438 C 911.422 0.525929 913.753 0.562083 916.084 0.600497 C 918.415 0.638911 920.746 0.679584 923.077 0.716303 C 925.408 0.753022 927.739 0.785787 930.07 0.798497 C 932.401 0.811208 934.732 0.803864 937.063 0.828437 C 939.394 0.853011 941.725 0.909502 944.056 0.980398 C 946.387 1.05129 948.718 1.13659 951.049 1.19648 C 953.38 1.25636 955.711 1.29081 958.042 1.30776 C 960.373 1.32471 962.704 1.32414 965.035 1.30522 C 967.366 1.2863 969.697 1.24901 972.028 1.19817 C 974.359 1.14733 976.69 1.08293 979.021 1.05892 C 981.352 1.03491 983.683 1.05129 986.014 1.08999 C 988.345 1.12869 990.676 1.1897 993.007 1.2219 C 995.338 1.2541 997.669 1.25749 998.834 1.25918 L 1000 1.26087 L 1000 30 L 998.834 30 C 997.669 30 995.338 30 993.007 30 C 990.676 30 988.345 30 986.014 30 C 983.683 30 981.352 30 979.021 30 C 976.69 30 974.359 30 972.028 30 C 969.697 30 967.366 30 965.035 30 C 962.704 30 960.373 30 958.042 30 C 955.711 30 953.38 30 951.049 30 C 948.718 30 946.387 30 944.056 30 C 941.725 30 939.394 30 937.063 30 C 934.732 30 932.401 30 930.07 30 C 927.739 30 925.408 30 923.077 30 C 920.746 30 918.415 30 916.084 30 C 913.753 30 911.422 30 909.091 30 C 906.76 30 904.429 30 902.098 30 C 899.767 30 897.436 30 895.105 30 C 892.774 30 890.443 30 888.112 30 C 885.781 30 883.45 30 881.119 30 C 878.788 30 876.457 30 874.126 30 C 871.795 30 869.464 30 867.133 30 C 864.802 30 862.471 30 860.14 30 C 857.809 30 855.478 30 853.147 30 C 850.816 30 848.485 30 846.154 30 C 843.823 30 841.492 30 839.161 30 C 836.83 30 834.499 30 832.168 30 C 829.837 30 827.506 30 825.175 30 C 822.844 30 820.513 30 818.182 30 C 815.851 30 813.52 30 811.189 30 C 808.858 30 806.527 30 804.196 30 C 801.865 30 799.534 30 797.203 30 C 794.872 30 792.541 30 790.21 30 C 787.879 30 785.548 30 783.217 30 C 780.886 30 778.555 30 776.224 30 C 773.893 30 771.562 30 769.231 30 C 766.9 30 764.569 30 762.238 30 C 759.907 30 757.576 30 755.245 30 C 752.914 30 750.583 30 748.252 30 C 745.921 30 743.59 30 741.259 30 C 738.928 30 736.597 30 734.266 30 C 731.935 30 729.604 30 727.273 30 C 724.942 30 722.611 30 720.28 30 C 717.949 30 715.618 30 713.287 30 C 710.956 30 708.625 30 706.294 30 C 703.963 30 701.632 30 699.301 30 C 696.97 30 694.639 30 692.308 30 C 689.977 30 687.646 30 685.315 30 C 682.984 30 680.653 30 678.322 30 C 675.991 30 673.66 30 671.329 30 C 668.998 30 666.667 30 664.336 30 C 662.005 30 659.674 30 657.343 30 C 655.012 30 652.681 30 650.35 30 C 648.019 30 645.688 30 643.357 30 C 641.026 30 638.695 30 636.364 30 C 634.033 30 631.702 30 629.371 30 C 627.04 30 624.709 30 622.378 30 C 620.047 30 617.716 30 615.385 30 C 613.054 30 610.723 30 608.392 30 C 606.061 30 603.73 30 601.399 30 C 599.068 30 596.737 30 594.406 30 C 592.075 30 589.744 30 587.413 30 C 585.082 30 582.751 30 580.42 30 C 578.089 30 575.758 30 573.427 30 C 571.096 30 568.765 30 566.434 30 C 564.103 30 561.772 30 559.441 30 C 557.11 30 554.779 30 552.448 30 C 550.117 30 547.786 30 545.455 30 C 543.124 30 540.793 30 538.462 30 C 536.131 30 533.8 30 531.469 30 C 529.138 30 526.807 30 524.476 30 C 522.145 30 519.814 30 517.483 30 C 515.151 30 512.82 30 510.49 30 C 508.159 30 505.828 30 503.496 30 C 501.165 30 498.835 30 496.504 30 C 494.172 30 491.841 30 489.51 30 C 487.179 30 484.848 30 482.517 30 C 480.186 30 477.855 30 475.524 30 C 473.193 30 470.862 30 468.531 30 C 466.2 30 463.869 30 461.538 30 C 459.207 30 456.876 30 454.545 30 C 452.214 30 449.883 30 447.552 30 C 445.221 30 442.89 30 440.559 30 C 438.228 30 435.897 30 433.566 30 C 431.235 30 428.904 30 426.573 30 C 424.242 30 421.911 30 419.58 30 C 417.249 30 414.918 30 412.587 30 C 410.256 30 407.925 30 405.594 30 C 403.263 30 400.932 30 398.601 30 C 396.27 30 393.939 30 391.608 30 C 389.277 30 386.946 30 384.615 30 C 382.284 30 379.953 30 377.622 30 C 375.291 30 372.96 30 370.629 30 C 368.298 30 365.967 30 363.636 30 C 361.305 30 358.974 30 356.643 30 C 354.312 30 351.981 30 349.65 30 C 347.319 30 344.988 30 342.657 30 C 340.326 30 337.995 30 335.664 30 C 333.333 30 331.002 30 328.671 30 C 326.34 30 324.009 30 321.678 30 C 319.347 30 317.016 30 314.685 30 C 312.354 30 310.023 30 307.692 30 C 305.361 30 303.03 30 300.699 30 C 298.368 30 296.037 30 293.706 30 C 291.375 30 289.044 30 286.713 30 C 284.382 30 282.051 30 279.72 30 C 277.389 30 275.058 30 272.727 30 C 270.396 30 268.065 30 265.734 30 C 263.403 30 261.072 30 258.741 30 C 256.41 30 254.079 30 251.748 30 C 249.417 30 247.086 30 244.755 30 C 242.424 30 240.093 30 237.762 30 C 235.431 30 233.1 30 230.769 30 C 228.438 30 226.107 30 223.776 30 C 221.445 30 219.114 30 216.783 30 C 214.452 30 212.121 30 209.79 30 C 207.459 30 205.128 30 202.797 30 C 200.466 30 198.135 30 195.804 30 C 193.473 30 191.142 30 188.811 30 C 186.48 30 184.149 30 181.818 30 C 179.487 30 177.156 30 174.825 30 C 172.494 30 170.163 30 167.832 30 C 165.501 30 163.17 30 160.839 30 C 158.508 30 156.177 30 153.846 30 C 151.515 30 149.184 30 146.853 30 C 144.522 30 142.191 30 139.86 30 C 137.529 30 135.198 30 132.867 30 C 130.536 30 128.205 30 125.874 30 C 123.543 30 121.212 30 118.881 30 C 116.55 30 114.219 30 111.888 30 C 109.557 30 107.226 30 104.895 30 C 102.564 30 100.233 30 97.9021 30 C 95.5711 30 93.2401 30 90.9091 30 C 88.5781 30 86.2471 30 83.9161 30 C 81.5851 30 79.2541 30 76.9231 30 C 74.5921 30 72.2611 30 69.9301 30 C 67.5991 30 65.2681 30 62.9371 30 C 60.6061 30 58.2751 30 55.9441 30 C 53.6131 30 51.2821 30 48.951 30 C 46.62 30 44.289 30 41.958 30 C 39.627 30 37.296 30 34.965 30 C 32.634 30 30.303 30 27.972 30 C 25.641 30 23.31 30 20.979 30 C 18.648 30 16.317 30 13.986 30 C 11.655 30 9.32401 30 6.99301 30 C 4.662 30 2.331 30 1.1655 30 L 0 30 Z&quot;);"/>
                </g>
            </svg>